# xmcd
#
# Track frame offsets:
#	150
#	18757
#	34871
#	52430
#	67591
#	85176
#	99764
#	111806
#	128462
#	143621
#	169133
#	190675
#	208507
#	229295
#	250812
#	267654
#	287302
#	315293
#
# Disc length: 4590 seconds
#
# Revision: 1
# Processed by: cddbd v1.5.2PL0 Copyright (c) Steve Scherf et al.
# Submitted via: audiograbber 1.83.01
#
DISCID=e811ec12
DTITLE=Entwine - Rough N' Stripped
DYEAR=2010
DGENRE=Gothic
TTITLE0=Save your sins
TTITLE1=Chameleon halo
TTITLE2=Still remains
TTITLE3=Surrender
TTITLE4=Twisted
TTITLE5=Frozen by the sun
TTITLE6=Bitter sweet
TTITLE7=The pit (2010 Version)
TTITLE8=Strife
TTITLE9=Curtained Life
TTITLE10=Break me
TTITLE11=New dawn
TTITLE12=Caught by desire
TTITLE13=Losing the ground
TTITLE14=Out of you
TTITLE15=Refill my soul
TTITLE16=Time for despair (2010 Version)
TTITLE17=Thy guiding light
EXTD=
EXTT0=
EXTT1=
EXTT2=
EXTT3=
EXTT4=
EXTT5=
EXTT6=
EXTT7=
EXTT8=
EXTT9=
EXTT10=
EXTT11=
EXTT12=
EXTT13=
EXTT14=
EXTT15=
EXTT16=
EXTT17=
PLAYORDER=
